<mxfile host="www.draw.io" modified="2020-01-19T13:46:04.640Z" agent="Mozilla/5.0 (X11; Linux x86_64) AppleWebKit/537.36 (KHTML, like Gecko) Chrome/78.0.3904.108 Safari/537.36" etag="ukSH4M6kMRPmJXrd5uhD" version="12.5.5" type="github">
  <diagram id="NQGxKBJqIbBMCAULDerY" name="Page-1">
    <mxGraphModel dx="1422" dy="727" grid="1" gridSize="10" guides="1" tooltips="1" connect="1" arrows="1" fold="1" page="1" pageScale="1" pageWidth="850" pageHeight="1100" math="0" shadow="0">
      <root>
        <mxCell id="0"/>
        <mxCell id="1" parent="0"/>
        <mxCell id="46GzT4hHPh9M0fxXUTL5-27" value="" style="edgeStyle=orthogonalEdgeStyle;rounded=0;orthogonalLoop=1;jettySize=auto;html=1;" parent="1" source="46GzT4hHPh9M0fxXUTL5-1" target="46GzT4hHPh9M0fxXUTL5-14" edge="1">
          <mxGeometry relative="1" as="geometry"/>
        </mxCell>
        <mxCell id="46GzT4hHPh9M0fxXUTL5-29" value="n:1" style="text;html=1;align=center;verticalAlign=middle;resizable=0;points=[];labelBackgroundColor=#ffffff;" parent="46GzT4hHPh9M0fxXUTL5-27" vertex="1" connectable="0">
          <mxGeometry x="-0.1159" y="1" relative="1" as="geometry">
            <mxPoint as="offset"/>
          </mxGeometry>
        </mxCell>
        <mxCell id="46GzT4hHPh9M0fxXUTL5-41" value="" style="edgeStyle=orthogonalEdgeStyle;rounded=0;orthogonalLoop=1;jettySize=auto;html=1;" parent="1" source="46GzT4hHPh9M0fxXUTL5-1" target="46GzT4hHPh9M0fxXUTL5-30" edge="1">
          <mxGeometry relative="1" as="geometry"/>
        </mxCell>
        <mxCell id="46GzT4hHPh9M0fxXUTL5-64" value="1:n" style="text;html=1;align=center;verticalAlign=middle;resizable=0;points=[];labelBackgroundColor=#ffffff;" parent="46GzT4hHPh9M0fxXUTL5-41" vertex="1" connectable="0">
          <mxGeometry x="0.8565" y="3" relative="1" as="geometry">
            <mxPoint x="-3" y="-40.19" as="offset"/>
          </mxGeometry>
        </mxCell>
        <mxCell id="46GzT4hHPh9M0fxXUTL5-1" value="Items" style="swimlane;fontStyle=0;childLayout=stackLayout;horizontal=1;startSize=26;fillColor=#ffe6cc;horizontalStack=0;resizeParent=1;resizeParentMax=0;resizeLast=0;collapsible=1;marginBottom=0;strokeColor=#d79b00;" parent="1" vertex="1">
          <mxGeometry x="160" y="20" width="200" height="260" as="geometry"/>
        </mxCell>
        <mxCell id="46GzT4hHPh9M0fxXUTL5-2" value="★ id CHAR(4)" style="text;strokeColor=none;fillColor=none;align=left;verticalAlign=top;spacingLeft=4;spacingRight=4;overflow=hidden;rotatable=0;points=[[0,0.5],[1,0.5]];portConstraint=eastwest;" parent="46GzT4hHPh9M0fxXUTL5-1" vertex="1">
          <mxGeometry y="26" width="200" height="26" as="geometry"/>
        </mxCell>
        <mxCell id="46GzT4hHPh9M0fxXUTL5-5" value="☆ category_id FOREIGN" style="text;align=left;verticalAlign=top;spacingLeft=4;spacingRight=4;overflow=hidden;rotatable=0;points=[[0,0.5],[1,0.5]];portConstraint=eastwest;fillColor=#EDF1FC;strokeColor=#6c8ebf;" parent="46GzT4hHPh9M0fxXUTL5-1" vertex="1">
          <mxGeometry y="52" width="200" height="26" as="geometry"/>
        </mxCell>
        <mxCell id="46GzT4hHPh9M0fxXUTL5-3" value="+ title VARCHAR" style="text;strokeColor=none;fillColor=none;align=left;verticalAlign=top;spacingLeft=4;spacingRight=4;overflow=hidden;rotatable=0;points=[[0,0.5],[1,0.5]];portConstraint=eastwest;" parent="46GzT4hHPh9M0fxXUTL5-1" vertex="1">
          <mxGeometry y="78" width="200" height="26" as="geometry"/>
        </mxCell>
        <mxCell id="46GzT4hHPh9M0fxXUTL5-4" value="+ description VARCHAR" style="text;strokeColor=none;fillColor=none;align=left;verticalAlign=top;spacingLeft=4;spacingRight=4;overflow=hidden;rotatable=0;points=[[0,0.5],[1,0.5]];portConstraint=eastwest;" parent="46GzT4hHPh9M0fxXUTL5-1" vertex="1">
          <mxGeometry y="104" width="200" height="26" as="geometry"/>
        </mxCell>
        <mxCell id="46GzT4hHPh9M0fxXUTL5-6" value="+ type CHAR(1) (m/f/d/c)" style="text;strokeColor=none;fillColor=none;align=left;verticalAlign=top;spacingLeft=4;spacingRight=4;overflow=hidden;rotatable=0;points=[[0,0.5],[1,0.5]];portConstraint=eastwest;" parent="46GzT4hHPh9M0fxXUTL5-1" vertex="1">
          <mxGeometry y="130" width="200" height="26" as="geometry"/>
        </mxCell>
        <mxCell id="46GzT4hHPh9M0fxXUTL5-7" value="+ size VARCHAR" style="text;strokeColor=none;fillColor=none;align=left;verticalAlign=top;spacingLeft=4;spacingRight=4;overflow=hidden;rotatable=0;points=[[0,0.5],[1,0.5]];portConstraint=eastwest;" parent="46GzT4hHPh9M0fxXUTL5-1" vertex="1">
          <mxGeometry y="156" width="200" height="26" as="geometry"/>
        </mxCell>
        <mxCell id="46GzT4hHPh9M0fxXUTL5-8" value="+ active BOOLEAN" style="text;strokeColor=none;fillColor=none;align=left;verticalAlign=top;spacingLeft=4;spacingRight=4;overflow=hidden;rotatable=0;points=[[0,0.5],[1,0.5]];portConstraint=eastwest;" parent="46GzT4hHPh9M0fxXUTL5-1" vertex="1">
          <mxGeometry y="182" width="200" height="26" as="geometry"/>
        </mxCell>
        <mxCell id="46GzT4hHPh9M0fxXUTL5-12" value="+ created DATETIME" style="text;strokeColor=none;fillColor=none;align=left;verticalAlign=top;spacingLeft=4;spacingRight=4;overflow=hidden;rotatable=0;points=[[0,0.5],[1,0.5]];portConstraint=eastwest;" parent="46GzT4hHPh9M0fxXUTL5-1" vertex="1">
          <mxGeometry y="208" width="200" height="26" as="geometry"/>
        </mxCell>
        <mxCell id="46GzT4hHPh9M0fxXUTL5-11" value="+ modified DATETIME" style="text;strokeColor=none;fillColor=none;align=left;verticalAlign=top;spacingLeft=4;spacingRight=4;overflow=hidden;rotatable=0;points=[[0,0.5],[1,0.5]];portConstraint=eastwest;" parent="46GzT4hHPh9M0fxXUTL5-1" vertex="1">
          <mxGeometry y="234" width="200" height="26" as="geometry"/>
        </mxCell>
        <mxCell id="46GzT4hHPh9M0fxXUTL5-30" value="reservations" style="swimlane;fontStyle=0;childLayout=stackLayout;horizontal=1;startSize=26;fillColor=#d5e8d4;horizontalStack=0;resizeParent=1;resizeParentMax=0;resizeLast=0;collapsible=1;marginBottom=0;strokeColor=#82b366;" parent="1" vertex="1">
          <mxGeometry x="160" y="386" width="200" height="338" as="geometry"/>
        </mxCell>
        <mxCell id="46GzT4hHPh9M0fxXUTL5-31" value="★ id CHAR(32)" style="text;strokeColor=none;fillColor=none;align=left;verticalAlign=top;spacingLeft=4;spacingRight=4;overflow=hidden;rotatable=0;points=[[0,0.5],[1,0.5]];portConstraint=eastwest;" parent="46GzT4hHPh9M0fxXUTL5-30" vertex="1">
          <mxGeometry y="26" width="200" height="26" as="geometry"/>
        </mxCell>
        <mxCell id="rjzpWM8MEfxIzV5pYhfM-1" value="☆ item_id FOREIGN" style="text;align=left;verticalAlign=top;spacingLeft=4;spacingRight=4;overflow=hidden;rotatable=0;points=[[0,0.5],[1,0.5]];portConstraint=eastwest;fillColor=#FFF3E6;strokeColor=#d79b00;" vertex="1" parent="46GzT4hHPh9M0fxXUTL5-30">
          <mxGeometry y="52" width="200" height="26" as="geometry"/>
        </mxCell>
        <mxCell id="rjzpWM8MEfxIzV5pYhfM-2" value="+ employee VARCHAR" style="text;strokeColor=none;fillColor=none;align=left;verticalAlign=top;spacingLeft=4;spacingRight=4;overflow=hidden;rotatable=0;points=[[0,0.5],[1,0.5]];portConstraint=eastwest;" vertex="1" parent="46GzT4hHPh9M0fxXUTL5-30">
          <mxGeometry y="78" width="200" height="26" as="geometry"/>
        </mxCell>
        <mxCell id="rjzpWM8MEfxIzV5pYhfM-3" value="+ costumer_name VARCHAR" style="text;strokeColor=none;fillColor=none;align=left;verticalAlign=top;spacingLeft=4;spacingRight=4;overflow=hidden;rotatable=0;points=[[0,0.5],[1,0.5]];portConstraint=eastwest;" vertex="1" parent="46GzT4hHPh9M0fxXUTL5-30">
          <mxGeometry y="104" width="200" height="26" as="geometry"/>
        </mxCell>
        <mxCell id="rjzpWM8MEfxIzV5pYhfM-5" value="+ costumer_phone VARCHAR" style="text;strokeColor=none;fillColor=none;align=left;verticalAlign=top;spacingLeft=4;spacingRight=4;overflow=hidden;rotatable=0;points=[[0,0.5],[1,0.5]];portConstraint=eastwest;" vertex="1" parent="46GzT4hHPh9M0fxXUTL5-30">
          <mxGeometry y="130" width="200" height="26" as="geometry"/>
        </mxCell>
        <mxCell id="rjzpWM8MEfxIzV5pYhfM-4" value="+ costumer_email VARCHAR" style="text;strokeColor=none;fillColor=none;align=left;verticalAlign=top;spacingLeft=4;spacingRight=4;overflow=hidden;rotatable=0;points=[[0,0.5],[1,0.5]];portConstraint=eastwest;" vertex="1" parent="46GzT4hHPh9M0fxXUTL5-30">
          <mxGeometry y="156" width="200" height="26" as="geometry"/>
        </mxCell>
        <mxCell id="46GzT4hHPh9M0fxXUTL5-45" value="+ start DATETIME" style="text;strokeColor=none;fillColor=none;align=left;verticalAlign=top;spacingLeft=4;spacingRight=4;overflow=hidden;rotatable=0;points=[[0,0.5],[1,0.5]];portConstraint=eastwest;" parent="46GzT4hHPh9M0fxXUTL5-30" vertex="1">
          <mxGeometry y="182" width="200" height="26" as="geometry"/>
        </mxCell>
        <mxCell id="46GzT4hHPh9M0fxXUTL5-44" value="+ end DATETIME" style="text;strokeColor=none;fillColor=none;align=left;verticalAlign=top;spacingLeft=4;spacingRight=4;overflow=hidden;rotatable=0;points=[[0,0.5],[1,0.5]];portConstraint=eastwest;" parent="46GzT4hHPh9M0fxXUTL5-30" vertex="1">
          <mxGeometry y="208" width="200" height="26" as="geometry"/>
        </mxCell>
        <mxCell id="46GzT4hHPh9M0fxXUTL5-42" value="+ fetched_on DATETIME" style="text;strokeColor=none;fillColor=none;align=left;verticalAlign=top;spacingLeft=4;spacingRight=4;overflow=hidden;rotatable=0;points=[[0,0.5],[1,0.5]];portConstraint=eastwest;" parent="46GzT4hHPh9M0fxXUTL5-30" vertex="1">
          <mxGeometry y="234" width="200" height="26" as="geometry"/>
        </mxCell>
        <mxCell id="46GzT4hHPh9M0fxXUTL5-43" value="+ returned_on DATETIME" style="text;strokeColor=none;fillColor=none;align=left;verticalAlign=top;spacingLeft=4;spacingRight=4;overflow=hidden;rotatable=0;points=[[0,0.5],[1,0.5]];portConstraint=eastwest;" parent="46GzT4hHPh9M0fxXUTL5-30" vertex="1">
          <mxGeometry y="260" width="200" height="26" as="geometry"/>
        </mxCell>
        <mxCell id="46GzT4hHPh9M0fxXUTL5-37" value="+ created DATETIME" style="text;strokeColor=none;fillColor=none;align=left;verticalAlign=top;spacingLeft=4;spacingRight=4;overflow=hidden;rotatable=0;points=[[0,0.5],[1,0.5]];portConstraint=eastwest;" parent="46GzT4hHPh9M0fxXUTL5-30" vertex="1">
          <mxGeometry y="286" width="200" height="26" as="geometry"/>
        </mxCell>
        <mxCell id="46GzT4hHPh9M0fxXUTL5-38" value="+ modified DATETIME" style="text;strokeColor=none;fillColor=none;align=left;verticalAlign=top;spacingLeft=4;spacingRight=4;overflow=hidden;rotatable=0;points=[[0,0.5],[1,0.5]];portConstraint=eastwest;" parent="46GzT4hHPh9M0fxXUTL5-30" vertex="1">
          <mxGeometry y="312" width="200" height="26" as="geometry"/>
        </mxCell>
        <mxCell id="46GzT4hHPh9M0fxXUTL5-14" value="category" style="swimlane;fontStyle=0;childLayout=stackLayout;horizontal=1;startSize=26;fillColor=#dae8fc;horizontalStack=0;resizeParent=1;resizeParentMax=0;resizeLast=0;collapsible=1;marginBottom=0;strokeColor=#6c8ebf;" parent="1" vertex="1">
          <mxGeometry x="520" y="33" width="200" height="234" as="geometry"/>
        </mxCell>
        <mxCell id="46GzT4hHPh9M0fxXUTL5-15" value="★ id CHAR(4)" style="text;strokeColor=none;fillColor=none;align=left;verticalAlign=top;spacingLeft=4;spacingRight=4;overflow=hidden;rotatable=0;points=[[0,0.5],[1,0.5]];portConstraint=eastwest;" parent="46GzT4hHPh9M0fxXUTL5-14" vertex="1">
          <mxGeometry y="26" width="200" height="26" as="geometry"/>
        </mxCell>
        <mxCell id="46GzT4hHPh9M0fxXUTL5-16" value="+ title VARCHAR" style="text;strokeColor=none;fillColor=none;align=left;verticalAlign=top;spacingLeft=4;spacingRight=4;overflow=hidden;rotatable=0;points=[[0,0.5],[1,0.5]];portConstraint=eastwest;" parent="46GzT4hHPh9M0fxXUTL5-14" vertex="1">
          <mxGeometry y="52" width="200" height="26" as="geometry"/>
        </mxCell>
        <mxCell id="46GzT4hHPh9M0fxXUTL5-17" value="+ description VARCHAR" style="text;strokeColor=none;fillColor=none;align=left;verticalAlign=top;spacingLeft=4;spacingRight=4;overflow=hidden;rotatable=0;points=[[0,0.5],[1,0.5]];portConstraint=eastwest;" parent="46GzT4hHPh9M0fxXUTL5-14" vertex="1">
          <mxGeometry y="78" width="200" height="26" as="geometry"/>
        </mxCell>
        <mxCell id="46GzT4hHPh9M0fxXUTL5-28" value="+ location VARCHAR" style="text;strokeColor=none;fillColor=none;align=left;verticalAlign=top;spacingLeft=4;spacingRight=4;overflow=hidden;rotatable=0;points=[[0,0.5],[1,0.5]];portConstraint=eastwest;" parent="46GzT4hHPh9M0fxXUTL5-14" vertex="1">
          <mxGeometry y="104" width="200" height="26" as="geometry"/>
        </mxCell>
        <mxCell id="46GzT4hHPh9M0fxXUTL5-18" value="+ color COLOR" style="text;strokeColor=none;fillColor=none;align=left;verticalAlign=top;spacingLeft=4;spacingRight=4;overflow=hidden;rotatable=0;points=[[0,0.5],[1,0.5]];portConstraint=eastwest;" parent="46GzT4hHPh9M0fxXUTL5-14" vertex="1">
          <mxGeometry y="130" width="200" height="26" as="geometry"/>
        </mxCell>
        <mxCell id="46GzT4hHPh9M0fxXUTL5-20" value="+ active BOOLEAN" style="text;strokeColor=none;fillColor=none;align=left;verticalAlign=top;spacingLeft=4;spacingRight=4;overflow=hidden;rotatable=0;points=[[0,0.5],[1,0.5]];portConstraint=eastwest;" parent="46GzT4hHPh9M0fxXUTL5-14" vertex="1">
          <mxGeometry y="156" width="200" height="26" as="geometry"/>
        </mxCell>
        <mxCell id="46GzT4hHPh9M0fxXUTL5-22" value="+ created DATETIME" style="text;strokeColor=none;fillColor=none;align=left;verticalAlign=top;spacingLeft=4;spacingRight=4;overflow=hidden;rotatable=0;points=[[0,0.5],[1,0.5]];portConstraint=eastwest;" parent="46GzT4hHPh9M0fxXUTL5-14" vertex="1">
          <mxGeometry y="182" width="200" height="26" as="geometry"/>
        </mxCell>
        <mxCell id="46GzT4hHPh9M0fxXUTL5-23" value="+ modified DATETIME" style="text;strokeColor=none;fillColor=none;align=left;verticalAlign=top;spacingLeft=4;spacingRight=4;overflow=hidden;rotatable=0;points=[[0,0.5],[1,0.5]];portConstraint=eastwest;" parent="46GzT4hHPh9M0fxXUTL5-14" vertex="1">
          <mxGeometry y="208" width="200" height="26" as="geometry"/>
        </mxCell>
      </root>
    </mxGraphModel>
  </diagram>
</mxfile>
